<svg width="108" height="24" viewBox="0 0 108 24" fill="none" xmlns="http://www.w3.org/2000/svg">
<g clip-path="url(#clip0_65_44)">
<path d="M104.783 0H3.21667C2.36091 0.00326973 1.5415 0.335903 0.938377 0.924837C0.335257 1.51377 -0.00224444 2.31085 1.12344e-05 3.141V13.9019C-0.000412365 14.836 0.379327 15.7326 1.05667 16.3966L8.83097 24V20.1674H104.783C105.207 20.1658 105.627 20.0832 106.018 19.9242C106.409 19.7653 106.764 19.5332 107.063 19.2411C107.362 18.9491 107.598 18.6028 107.759 18.2221C107.92 17.8414 108.002 17.4337 108 17.0223V3.141C108.002 2.31085 107.665 1.51377 107.062 0.924837C106.459 0.335903 105.639 0.00326973 104.783 0ZM105.208 17.6027H8.83522V20.1674L2.77957 14.2477V2.56055H105.22V17.5986L105.208 17.6027Z" fill="#E60000"/>
<path d="M82.5804 6.98586V14.2805H80.7727V8.92891L78.7145 11.8106C78.6208 11.9422 78.4956 12.0498 78.3496 12.1241C78.2037 12.1984 78.0413 12.2372 77.8764 12.2372C77.7115 12.2372 77.5491 12.1984 77.4031 12.1241C77.2572 12.0498 77.132 11.9422 77.0383 11.8106L74.9801 8.92891V14.2805H73.1723V6.98586C73.1708 6.8036 73.2143 6.62363 73.2992 6.46104C73.3841 6.29845 73.508 6.15796 73.6604 6.05138C73.9046 5.88549 74.2068 5.82049 74.5004 5.87067C74.7941 5.92085 75.0552 6.0821 75.2263 6.31897L77.8743 10.0239L80.5223 6.31897C80.606 6.20071 80.713 6.09963 80.8371 6.02154C80.9612 5.94344 81.0999 5.88986 81.2454 5.86386C81.3908 5.83786 81.5402 5.83995 81.6848 5.87C81.8294 5.90006 81.9665 5.9575 82.0882 6.03903C82.2432 6.14637 82.3689 6.28862 82.4547 6.45355C82.5404 6.61849 82.5836 6.80116 82.5804 6.98586ZM61.4133 11.3083L57.8487 6.32307C57.7649 6.20482 57.6579 6.10375 57.5339 6.02566C57.4098 5.94757 57.271 5.89398 57.1256 5.86798C56.9801 5.84198 56.8308 5.84407 56.6862 5.87412C56.5416 5.90418 56.4045 5.96162 56.2828 6.04315C56.1327 6.14785 56.0106 6.28575 55.9264 6.4454C55.8423 6.60505 55.7986 6.78186 55.799 6.96116V14.2723H57.6068V8.92067L61.1714 13.9018C61.2552 14.0201 61.3621 14.1211 61.4862 14.1992C61.6103 14.2773 61.749 14.3309 61.8945 14.3569C62.04 14.3829 62.1893 14.3808 62.3339 14.3508C62.4785 14.3207 62.6156 14.2633 62.7373 14.1817C62.8874 14.077 63.0095 13.9391 63.0936 13.7795C63.1778 13.6198 63.2215 13.443 63.2211 13.2637V5.93611H61.4133V11.2877V11.3083ZM88.7337 7.26991C89.1515 7.27316 89.5643 7.35918 89.9467 7.5227C90.3291 7.68622 90.673 7.9238 90.9574 8.22085L91.9758 6.84178C91.058 6.12959 89.9131 5.74969 88.7379 5.76733C86.1196 5.76733 83.862 7.48808 83.862 10.1063C83.862 12.7244 86.1154 14.4452 88.7379 14.4452C89.9131 14.4628 91.058 14.083 91.9758 13.3708L90.9574 11.9917C90.673 12.2887 90.3291 12.5263 89.9467 12.6898C89.5643 12.8534 89.1515 12.9394 88.7337 12.9426C87.9855 12.9035 87.2812 12.5876 86.7658 12.06C86.2505 11.5324 85.9632 10.8331 85.9632 10.1063C85.9632 9.37939 86.2505 8.68018 86.7658 8.15255C87.2812 7.62492 87.9855 7.30903 88.7337 7.26991ZM101.821 10.1063C101.821 12.7244 99.6313 14.4452 97.0894 14.4452C94.5474 14.4452 92.3577 12.7244 92.3577 10.1063C92.3577 7.48808 94.5474 5.76733 97.0894 5.76733C99.6313 5.76733 101.821 7.48808 101.821 10.1063ZM99.8223 10.1063C99.8223 8.53783 98.7104 7.27402 97.0894 7.27402C95.4683 7.27402 94.3565 8.54194 94.3565 10.1063C94.3565 11.6706 95.4683 12.9385 97.0894 12.9385C98.7104 12.9385 99.8223 11.6747 99.8223 10.1063ZM69.4337 6.67299L72.574 14.2764H70.6431L69.8793 12.3704H66.3995L65.6357 14.2764H63.7176L66.8578 6.67299C66.947 6.41041 67.1192 6.18181 67.3501 6.01975C67.581 5.8577 67.8587 5.77045 68.1437 5.77045C68.4286 5.77045 68.7064 5.8577 68.9372 6.01975C69.1681 6.18181 69.3404 6.41041 69.4295 6.67299H69.4337ZM69.3064 10.9543L68.1352 8.03972L66.9639 10.9543H69.3064ZM14.7166 12.0246C14.7228 12.3149 14.6699 12.6036 14.5611 12.8741C14.4523 13.1446 14.2895 13.3917 14.0823 13.6012C13.875 13.8107 13.6272 13.9785 13.353 14.0951C13.0789 14.2116 12.7837 14.2746 12.4844 14.2805H7.71459C7.62228 14.2838 7.53021 14.2694 7.44368 14.238C7.35715 14.2066 7.27788 14.159 7.21043 14.0977C7.14298 14.0365 7.08869 13.9629 7.05067 13.8813C7.01266 13.7996 6.99167 13.7114 6.98894 13.6219C6.98894 13.6219 6.98894 13.5889 6.98894 13.5684V6.64829C6.98495 6.55907 6.99914 6.46997 7.03069 6.38608C7.06224 6.30218 7.11055 6.22515 7.17282 6.15938C7.2351 6.09361 7.31013 6.04041 7.39363 6.00281C7.47712 5.9652 7.56745 5.94394 7.65942 5.94023H11.8352C13.2483 5.94023 14.2285 6.87882 14.2285 7.99855C14.2279 8.4478 14.0757 8.88451 13.7953 9.24203C13.5149 9.59955 13.1215 9.85825 12.6754 9.97865C13.224 9.99889 13.7432 10.2247 14.1239 10.6085C14.5045 10.9923 14.717 11.5044 14.7166 12.037V12.0246ZM8.79672 9.31588H11.1392C11.4003 9.33875 11.6601 9.26009 11.8614 9.09721C12.0627 8.93432 12.1891 8.70054 12.2128 8.44726C12.2128 8.42531 12.2128 8.40199 12.2128 8.37729C12.2106 8.25132 12.1829 8.12701 12.1311 8.01145C12.0794 7.8959 12.0047 7.79136 11.9113 7.70382C11.8179 7.61628 11.7076 7.54744 11.5868 7.50124C11.466 7.45505 11.3369 7.43239 11.2071 7.43457H8.77974L8.79672 9.31588ZM12.7348 11.757C12.7326 11.6203 12.7026 11.4852 12.6466 11.3597C12.5906 11.2342 12.5096 11.1205 12.4084 11.0254C12.3071 10.9302 12.1875 10.8553 12.0564 10.8049C11.9252 10.7546 11.7852 10.7298 11.6442 10.732H8.79672V12.7903H11.5636C11.7043 12.8016 11.846 12.7858 11.9804 12.7439C12.1149 12.7019 12.2395 12.6347 12.3471 12.546C12.4547 12.4573 12.5432 12.3488 12.6076 12.2269C12.6719 12.1049 12.7108 11.9718 12.7221 11.8353C12.7221 11.8133 12.7221 11.7913 12.7221 11.7694L12.7348 11.757ZM29.9978 11.3083L26.4162 6.32307C26.3325 6.20482 26.2255 6.10375 26.1014 6.02566C25.9773 5.94757 25.8386 5.89398 25.6931 5.86798C25.5477 5.84198 25.3984 5.84407 25.2537 5.87412C25.1091 5.90418 24.972 5.96162 24.8503 6.04315C24.7003 6.14785 24.5781 6.28575 24.494 6.4454C24.4098 6.60505 24.3662 6.78186 24.3665 6.96116V14.2723H26.1743V8.92067L29.739 13.9018C29.8227 14.0201 29.9297 14.1211 30.0538 14.1992C30.1778 14.2773 30.3166 14.3309 30.462 14.3569C30.6075 14.3829 30.7568 14.3808 30.9014 14.3508C31.046 14.3207 31.1831 14.2633 31.3048 14.1817C31.4549 14.077 31.5771 13.9391 31.6612 13.7795C31.7453 13.6198 31.789 13.443 31.7886 13.2637V5.93611H29.9808V11.2877L29.9978 11.3083ZM50.3375 14.2805H52.2131V5.93611H50.3375V14.2805ZM41.0906 10.0651C41.0906 12.815 39.024 14.2764 36.6773 14.2764H34.2711C34.1788 14.2797 34.0868 14.2653 34.0002 14.2339C33.9137 14.2025 33.8344 14.1548 33.767 14.0936C33.6995 14.0324 33.6452 13.9588 33.6072 13.8772C33.5692 13.7955 33.5482 13.7073 33.5455 13.6178C33.5455 13.6178 33.5455 13.5848 33.5455 13.5642V6.64829C33.5415 6.55907 33.5557 6.46997 33.5872 6.38608C33.6188 6.30218 33.6671 6.22515 33.7294 6.15938C33.7916 6.09361 33.8667 6.04041 33.9502 6.00281C34.0337 5.9652 34.124 5.94394 34.216 5.94023H36.6985C39.041 5.94023 41.0864 7.26579 41.0864 10.0569L41.0906 10.0651ZM39.1089 10.0651C39.1089 8.07264 37.5896 7.43457 36.3123 7.43457H35.3533V12.7862H36.2699C37.7764 12.7862 39.1089 12.0123 39.1089 10.0733V10.0651ZM20.6322 6.67299L23.7724 14.2764H21.8416L21.0777 12.3704H17.5937L16.8299 14.2764H14.916L18.0563 6.67299C18.1444 6.4089 18.3165 6.17868 18.5479 6.01539C18.7793 5.85211 19.0581 5.76416 19.3442 5.76416C19.6304 5.76416 19.9091 5.85211 20.1405 6.01539C20.3719 6.17868 20.544 6.4089 20.6322 6.67299ZM20.5049 10.9543L19.3336 8.03972L18.1624 10.9543H20.5049ZM46.5946 6.67299L49.7349 14.2764H47.804L47.0402 12.3704H43.5604L42.7966 14.2764H40.8827L44.023 6.67299C44.1121 6.41041 44.2843 6.18181 44.5152 6.01975C44.7461 5.8577 45.0238 5.77045 45.3088 5.77045C45.5938 5.77045 45.8715 5.8577 46.1023 6.01975C46.3332 6.18181 46.5055 6.41041 46.5946 6.67299ZM46.4673 10.9543L45.296 8.03972L44.1248 10.9543H46.4673Z" fill="#F5F5F5"/>
</g>
<defs>
<clipPath id="clip0_65_44">
<rect width="108" height="24" fill="white"/>
</clipPath>
</defs>
</svg>
