<svg width="46" height="45" viewBox="0 0 46 45" fill="none" xmlns="http://www.w3.org/2000/svg">
<path d="M13.625 11.25C13.1277 11.25 12.6508 11.4475 12.2992 11.7992C11.9475 12.1508 11.75 12.6277 11.75 13.125C11.75 13.6223 11.9475 14.0992 12.2992 14.4508C12.6508 14.8025 13.1277 15 13.625 15H32.375C32.8723 15 33.3492 14.8025 33.7008 14.4508C34.0525 14.0992 34.25 13.6223 34.25 13.125C34.25 12.6277 34.0525 12.1508 33.7008 11.7992C33.3492 11.4475 32.8723 11.25 32.375 11.25H13.625ZM13.625 20.625C13.1277 20.625 12.6508 20.8225 12.2992 21.1742C11.9475 21.5258 11.75 22.0027 11.75 22.5C11.75 22.9973 11.9475 23.4742 12.2992 23.8258C12.6508 24.1775 13.1277 24.375 13.625 24.375H24.875C25.3723 24.375 25.8492 24.1775 26.2008 23.8258C26.5525 23.4742 26.75 22.9973 26.75 22.5C26.75 22.0027 26.5525 21.5258 26.2008 21.1742C25.8492 20.8225 25.3723 20.625 24.875 20.625H13.625ZM13.625 30C13.1277 30 12.6508 30.1975 12.2992 30.5492C11.9475 30.9008 11.75 31.3777 11.75 31.875C11.75 32.3723 11.9475 32.8492 12.2992 33.2008C12.6508 33.5525 13.1277 33.75 13.625 33.75H32.375C32.8723 33.75 33.3492 33.5525 33.7008 33.2008C34.0525 32.8492 34.25 32.3723 34.25 31.875C34.25 31.3777 34.0525 30.9008 33.7008 30.5492C33.3492 30.1975 32.8723 30 32.375 30H13.625ZM9.875 0C7.3886 0 5.00403 0.98772 3.24587 2.74587C1.48772 4.50403 0.5 6.8886 0.5 9.375V35.625C0.5 38.1114 1.48772 40.496 3.24587 42.2541C5.00403 44.0123 7.3886 45 9.875 45H36.125C38.6114 45 40.996 44.0123 42.7541 42.2541C44.5123 40.496 45.5 38.1114 45.5 35.625V9.375C45.5 6.8886 44.5123 4.50403 42.7541 2.74587C40.996 0.98772 38.6114 0 36.125 0H9.875ZM4.25 9.375C4.25 7.88316 4.84263 6.45242 5.89752 5.39752C6.95242 4.34263 8.38316 3.75 9.875 3.75H36.125C37.6168 3.75 39.0476 4.34263 40.1025 5.39752C41.1574 6.45242 41.75 7.88316 41.75 9.375V35.625C41.75 37.1168 41.1574 38.5476 40.1025 39.6025C39.0476 40.6574 37.6168 41.25 36.125 41.25H9.875C8.38316 41.25 6.95242 40.6574 5.89752 39.6025C4.84263 38.5476 4.25 37.1168 4.25 35.625V9.375Z" fill="#F5F5F5"/>
</svg>
