<svg width="54" height="53" viewBox="0 0 54 53" fill="none" xmlns="http://www.w3.org/2000/svg">
<path d="M38.0417 8.83268C37.456 8.83268 36.8943 8.60002 36.4801 8.18588C36.066 7.77173 35.8333 7.21004 35.8333 6.62435C35.8333 6.03866 36.066 5.47696 36.4801 5.06282C36.8943 4.64868 37.456 4.41602 38.0417 4.41602H46.875C47.4607 4.41602 48.0224 4.64868 48.4365 5.06282C48.8507 5.47696 49.0833 6.03866 49.0833 6.62435V15.4577C49.0833 16.0434 48.8507 16.6051 48.4365 17.0192C48.0224 17.4334 47.4607 17.666 46.875 17.666C46.2893 17.666 45.7276 17.4334 45.3135 17.0192C44.8993 16.6051 44.6667 16.0434 44.6667 15.4577V11.9553L31.8738 24.7481C31.4597 25.1621 30.8981 25.3947 30.3125 25.3947C29.7269 25.3947 29.1653 25.1621 28.7512 24.7481L22.5833 18.5803L10.8946 30.269C10.4781 30.6712 9.9203 30.8938 9.34128 30.8888C8.76226 30.8838 8.20839 30.6515 7.79894 30.2421C7.3895 29.8326 7.15725 29.2788 7.15222 28.6997C7.14719 28.1207 7.36978 27.5629 7.77204 27.1464L21.022 13.8964C21.4362 13.4824 21.9978 13.2498 22.5833 13.2498C23.1689 13.2498 23.7305 13.4824 24.1446 13.8964L30.3125 20.0643L41.5441 8.83268H38.0417ZM11.5417 39.7493V46.3743C11.5417 46.96 11.309 47.5217 10.8949 47.9359C10.4807 48.35 9.91902 48.5827 9.33333 48.5827C8.74765 48.5827 8.18595 48.35 7.77181 47.9359C7.35766 47.5217 7.125 46.96 7.125 46.3743V39.7493C7.125 39.1637 7.35766 38.602 7.77181 38.1878C8.18595 37.7737 8.74765 37.541 9.33333 37.541C9.91902 37.541 10.4807 37.7737 10.8949 38.1878C11.309 38.602 11.5417 39.1637 11.5417 39.7493ZM22.5833 30.916C22.5833 30.3303 22.3507 29.7686 21.9365 29.3545C21.5224 28.9403 20.9607 28.7077 20.375 28.7077C19.7893 28.7077 19.2276 28.9403 18.8135 29.3545C18.3993 29.7686 18.1667 30.3303 18.1667 30.916V46.3743C18.1667 46.96 18.3993 47.5217 18.8135 47.9359C19.2276 48.35 19.7893 48.5827 20.375 48.5827C20.9607 48.5827 21.5224 48.35 21.9365 47.9359C22.3507 47.5217 22.5833 46.96 22.5833 46.3743V30.916ZM31.4167 33.1243C32.0024 33.1243 32.5641 33.357 32.9782 33.7712C33.3923 34.1853 33.625 34.747 33.625 35.3327V46.3743C33.625 46.96 33.3923 47.5217 32.9782 47.9359C32.5641 48.35 32.0024 48.5827 31.4167 48.5827C30.831 48.5827 30.2693 48.35 29.8551 47.9359C29.441 47.5217 29.2083 46.96 29.2083 46.3743V35.3327C29.2083 34.747 29.441 34.1853 29.8551 33.7712C30.2693 33.357 30.831 33.1243 31.4167 33.1243ZM44.6667 24.291C44.6667 23.7053 44.434 23.1436 44.0199 22.7295C43.6057 22.3153 43.044 22.0827 42.4583 22.0827C41.8727 22.0827 41.311 22.3153 40.8968 22.7295C40.4827 23.1436 40.25 23.7053 40.25 24.291V46.3743C40.25 46.96 40.4827 47.5217 40.8968 47.9359C41.311 48.35 41.8727 48.5827 42.4583 48.5827C43.044 48.5827 43.6057 48.35 44.0199 47.9359C44.434 47.5217 44.6667 46.96 44.6667 46.3743V24.291Z" fill="#F5F5F5"/>
</svg>
