<svg width="70" height="70" viewBox="0 0 70 70" fill="none" xmlns="http://www.w3.org/2000/svg">
<path d="M19.2398 49.3324C27.1551 49.3324 33.5724 42.9155 33.5724 35.0002C33.5724 27.0849 27.1555 20.668 19.2398 20.668C11.3241 20.668 4.90723 27.0849 4.90723 35.0002C4.90723 42.9155 11.3241 49.3324 19.2398 49.3324Z" fill="#A70B52"/>
<path d="M22.7289 40.044H19.7609V34.4351V28.8262H18.6602V41.1509H19.7609V41.1436H22.7289V40.044Z" fill="white"/>
<path d="M30.1377 35.459H22.7468V34.3583H31.2203C31.2316 34.5711 31.237 34.7843 31.237 35C31.237 41.6265 25.8652 46.9979 19.2391 46.9979C12.613 46.9979 7.24127 41.6265 7.24127 35C7.24127 28.3735 12.613 23.0021 19.2395 23.0021C19.4142 23.0021 19.5885 23.0058 19.7617 23.0134L19.7603 24.1058C19.5868 24.0978 19.4132 24.0938 19.2395 24.0938C13.2162 24.0938 8.33291 28.9767 8.33291 35C8.33291 41.0236 13.2159 45.9062 19.2395 45.9062C25.0986 45.9062 29.8784 41.2862 30.1348 35.4899L30.1377 35.459Z" fill="white"/>
<path d="M14.764 32.1467C15.2111 32.1467 15.64 31.9691 15.9561 31.6529C16.2723 31.3367 16.4499 30.9079 16.4499 30.4608C16.4499 30.0136 16.2723 29.5848 15.9561 29.2686C15.64 28.9525 15.2111 28.7748 14.764 28.7748C14.3169 28.7748 13.888 28.9525 13.5719 29.2686C13.2557 29.5848 13.0781 30.0136 13.0781 30.4608C13.0781 30.9079 13.2557 31.3367 13.5719 31.6529C13.888 31.9691 14.3169 32.1467 14.764 32.1467Z" fill="white"/>
<path d="M40.6885 42.0349H50.9298V38.9419H44.4486V27.8665H40.6885V42.0349ZM63.3035 28.8641C62.1294 27.9544 60.6176 27.4932 58.8135 27.4932C56.6712 27.4932 54.8812 28.1512 53.6367 29.3946C52.3377 30.6944 51.6499 32.6089 51.6499 34.9313C51.6499 37.4123 52.3769 39.5059 53.697 40.8249C54.7334 41.861 56.1141 42.4075 57.6942 42.4075C61.1627 42.4075 61.9606 40.3285 61.9606 40.3285V42.0342H65.0928V34.0325H58.8578V36.5364H61.7274C61.7274 36.5364 61.755 39.6889 58.7931 39.6889C58.0407 39.6889 57.3703 39.4159 56.8546 38.9002C56.051 38.0972 55.6261 36.7441 55.6261 34.9901C55.6261 32.0849 56.7809 30.3505 58.7143 30.3505C59.9222 30.3505 60.8301 31.092 61.0628 32.216H65.0517C64.8451 30.5829 64.3969 29.7316 63.3035 28.8641Z" fill="#F5F5F5"/>
</svg>
