<svg width="84" height="84" viewBox="0 0 84 84" fill="none" xmlns="http://www.w3.org/2000/svg">
<g clip-path="url(#clip0_65_6)">
<path d="M84.0011 41.1463V39.6691H82.1666V37.3725L82.1048 37.3915L80.3818 37.9187L80.3478 37.929V39.6692H77.6282V38.6998C77.6282 38.2484 77.7291 37.9029 77.928 37.6726C78.1256 37.445 78.4081 37.3293 78.7685 37.3293C79.0275 37.3293 79.2957 37.3903 79.5657 37.5106L79.6334 37.5409V35.9851L79.6015 35.9734C79.3497 35.8829 79.0072 35.8373 78.5826 35.8373C78.0476 35.8373 77.5614 35.9537 77.1374 36.1845C76.7131 36.4156 76.3794 36.7455 76.1456 37.165C75.9127 37.5839 75.7944 38.0678 75.7944 38.6033V39.6691H74.5171V41.1463H75.7944V47.3698H77.6282V41.1463H80.3478V45.1012C80.3478 46.7301 81.1161 47.5555 82.6313 47.5555C82.8803 47.5555 83.1423 47.5263 83.4099 47.4692C83.6823 47.4105 83.8678 47.3519 83.977 47.2894L84.0011 47.2751V45.7841L83.9266 45.8335C83.827 45.8998 83.7031 45.954 83.5578 45.9943C83.4119 46.0353 83.29 46.0559 83.1956 46.0559C82.8406 46.0559 82.578 45.9602 82.4151 45.7715C82.2503 45.581 82.1667 45.2479 82.1667 44.782V41.1463H84.0011ZM70.422 46.0561C69.7564 46.0561 69.2316 45.8354 68.8618 45.4007C68.4898 44.9638 68.3012 44.3408 68.3012 43.5494C68.3012 42.7328 68.4898 42.0937 68.862 41.6491C69.232 41.2074 69.7518 40.9832 70.407 40.9832C71.0429 40.9832 71.549 41.1973 71.9116 41.6199C72.276 42.0447 72.4609 42.6787 72.4609 43.5048C72.4609 44.341 72.287 44.9833 71.9441 45.413C71.6036 45.8395 71.0915 46.0561 70.422 46.0561ZM70.5035 39.4836C69.2337 39.4836 68.2251 39.8556 67.506 40.5895C66.7873 41.3234 66.423 42.339 66.423 43.6085C66.423 44.8142 66.7786 45.784 67.4802 46.4905C68.1818 47.1973 69.1366 47.5553 70.3178 47.5553C71.5487 47.5553 72.5372 47.178 73.256 46.434C73.9747 45.6909 74.3389 44.6848 74.3389 43.445C74.3389 42.2205 73.9972 41.2434 73.323 40.5416C72.6485 39.8395 71.6997 39.4836 70.5035 39.4836ZM63.4664 39.4836C62.6026 39.4836 61.8881 39.7045 61.3423 40.1401C60.7932 40.5784 60.5146 41.1531 60.5146 41.8486C60.5146 42.2101 60.5748 42.5312 60.6931 42.8036C60.8121 43.0769 60.9963 43.3175 61.2411 43.5194C61.4839 43.7197 61.8589 43.9295 62.3557 44.143C62.7733 44.3148 63.0848 44.4602 63.2827 44.5748C63.4761 44.6871 63.6133 44.7999 63.6908 44.9099C63.7662 45.0175 63.8043 45.1647 63.8043 45.3464C63.8043 45.8638 63.4169 46.1155 62.6197 46.1155C62.324 46.1155 61.9867 46.0538 61.6172 45.932C61.2504 45.8121 60.9041 45.6366 60.5906 45.4115L60.5145 45.3569V47.1224L60.5424 47.1354C60.8019 47.2551 61.129 47.3562 61.5146 47.4356C61.8994 47.5152 62.2491 47.5556 62.5528 47.5556C63.4901 47.5556 64.2449 47.3336 64.7957 46.8954C65.35 46.4542 65.6309 45.8659 65.6309 45.1463C65.6309 44.6273 65.4796 44.1821 65.1816 43.8231C64.8856 43.4671 64.3718 43.1402 63.6552 42.8512C63.0842 42.6221 62.7185 42.4318 62.5676 42.2858C62.4221 42.1448 62.3483 41.9453 62.3483 41.6926C62.3483 41.4687 62.4395 41.2893 62.6266 41.144C62.8152 40.998 63.0777 40.9237 63.407 40.9237C63.7125 40.9237 64.0251 40.972 64.336 41.0665C64.6467 41.1611 64.9195 41.2878 65.1473 41.4428L65.2222 41.494V39.8192L65.1934 39.8069C64.9833 39.7168 64.7062 39.6397 64.3697 39.5771C64.0346 39.5149 63.7307 39.4836 63.4664 39.4836ZM55.7341 46.0561C55.0687 46.0561 54.5438 45.8354 54.1741 45.4007C53.8019 44.9638 53.6137 44.341 53.6137 43.5494C53.6137 42.7328 53.8022 42.0937 54.1745 41.6491C54.5442 41.2074 55.0638 40.9832 55.7194 40.9832C56.355 40.9832 56.8612 41.1973 57.2238 41.6199C57.5883 42.0447 57.7731 42.6787 57.7731 43.5048C57.7731 44.341 57.5992 44.9833 57.2563 45.413C56.9157 45.8395 56.4039 46.0561 55.7341 46.0561ZM55.8159 39.4836C54.5457 39.4836 53.5371 39.8556 52.8184 40.5895C52.0997 41.3234 51.7351 42.339 51.7351 43.6085C51.7351 44.8147 52.091 45.784 52.7926 46.4905C53.4942 47.1973 54.4489 47.5553 55.6301 47.5553C56.8609 47.5553 57.8496 47.178 58.5684 46.434C59.287 45.6909 59.6513 44.6848 59.6513 43.445C59.6513 42.2205 59.3095 41.2434 58.6351 40.5416C57.9604 39.8395 57.0118 39.4836 55.8159 39.4836ZM48.9515 41.0027V39.6691H47.1401V47.3696H48.9515V43.4305C48.9515 42.7607 49.1034 42.2104 49.4031 41.7948C49.699 41.3841 50.0932 41.176 50.5746 41.176C50.7378 41.176 50.9209 41.2029 51.1193 41.2561C51.3156 41.309 51.4578 41.3665 51.5416 41.4269L51.6178 41.4821V39.6559L51.5884 39.6433C51.4198 39.5716 51.1811 39.5355 50.8791 39.5355C50.4239 39.5355 50.0166 39.6818 49.6677 39.9697C49.3614 40.2228 49.1401 40.5699 48.9708 41.0027H48.9515ZM43.8962 39.4836C43.0652 39.4836 42.324 39.6618 41.6935 40.013C41.0617 40.3651 40.5731 40.8678 40.2407 41.507C39.9097 42.1446 39.7417 42.8894 39.7417 43.72C39.7417 44.4476 39.9046 45.1153 40.2266 45.7038C40.5488 46.2932 41.0049 46.7544 41.5821 47.0742C42.1585 47.3936 42.8248 47.5556 43.5624 47.5556C44.4233 47.5556 45.1583 47.3835 45.7475 47.044L45.7714 47.0304V45.3709L45.6952 45.4264C45.4283 45.6209 45.13 45.7761 44.809 45.8879C44.4889 45.9996 44.197 46.0561 43.941 46.0561C43.2303 46.0561 42.6597 45.8337 42.2455 45.3952C41.8304 44.9562 41.62 44.3397 41.62 43.5639C41.62 42.7833 41.8394 42.1509 42.272 41.6844C42.7032 41.2192 43.2749 40.9832 43.9709 40.9832C44.5663 40.9832 45.1465 41.1848 45.6954 41.5829L45.7714 41.6381V39.8895L45.7468 39.8757C45.5403 39.7601 45.2585 39.6646 44.9088 39.5922C44.5605 39.52 44.2199 39.4836 43.8962 39.4836ZM38.4941 39.6692H36.6827V47.3696H38.4941V39.6692ZM37.607 36.3887C37.3088 36.3887 37.0488 36.4902 36.8352 36.6913C36.6207 36.893 36.5119 37.1469 36.5119 37.4466C36.5119 37.7416 36.6194 37.9909 36.8319 38.1872C37.043 38.3829 37.3038 38.4821 37.6071 38.4821C37.9102 38.4821 38.172 38.3829 38.3857 38.1875C38.6007 37.9909 38.7097 37.7416 38.7097 37.4466C38.7097 37.1574 38.6036 36.9061 38.3945 36.6994C38.1856 36.4932 37.9205 36.3887 37.607 36.3887ZM33.0874 39.101V47.3696H34.936V36.6244H32.3775L29.1254 44.6057L25.9694 36.6244H23.3066V47.3696H25.0439V39.1002H25.1035L28.4361 47.3696H29.7471L33.0278 39.101H33.0874Z" fill="#F5F5F5"/>
<path d="M8.52135 41.555H0V33.0336H8.52135V41.555Z" fill="#F1511B"/>
<path d="M17.9313 41.555H9.41016V33.0337H17.9313V41.555Z" fill="#80CC28"/>
<path d="M8.52111 50.9671H0V42.4458H8.52111V50.9671Z" fill="#00ADEF"/>
<path d="M17.9313 50.9671H9.41016V42.4458H17.9313V50.9671Z" fill="#FBBC09"/>
</g>
<defs>
<clipPath id="clip0_65_6">
<rect width="84" height="84" fill="white"/>
</clipPath>
</defs>
</svg>
