<svg width="70" height="70" viewBox="0 0 70 70" fill="none" xmlns="http://www.w3.org/2000/svg">
<g clip-path="url(#clip0_65_18)">
<path d="M57.7984 29.9857L57.9323 37.8414H57.8652L55.5923 29.9857H51.8481V39.8805H54.3218L54.1882 31.7576H54.2553L56.6953 39.8805H60.2723V29.9857H57.7984ZM10.6972 29.9857L8.82525 39.9811H11.5331L12.9036 30.8884H12.9704L14.3077 39.9808H16.982L15.1433 29.9857H10.6972ZM25.807 29.9857L24.5703 37.6075H24.5032L23.2665 29.9857H19.1882L18.9875 39.9811H21.4947L21.5618 30.9884H21.595L23.2663 39.9808H25.807L27.4785 30.9887H27.5456L27.6121 39.9808H30.1193L29.8853 29.9857H25.807ZM4.61329 37.1394C4.71333 37.3733 4.68008 37.7078 4.64654 37.875C4.57975 38.2092 4.34583 38.5435 3.67704 38.5435C3.04208 38.5435 2.67429 38.176 2.67429 37.6408V36.6716H0V37.4404C0 39.6801 1.77158 40.3486 3.64379 40.3486C5.44892 40.3486 6.95304 39.7133 7.18725 38.0753C7.32083 37.2062 7.2205 36.638 7.18725 36.4373C6.71913 34.3315 2.9085 33.7298 2.64075 32.5596C2.6075 32.359 2.6075 32.1586 2.64075 32.0247C2.70783 31.6905 2.94175 31.3562 3.54346 31.3562C4.14517 31.3562 4.47971 31.7237 4.47971 32.2589V32.8606H6.98658V32.1586C6.98658 29.9857 5.01433 29.6514 3.61025 29.6514C1.83867 29.6514 0.367792 30.2531 0.100333 31.8576C0.03325 32.2922 0 32.6935 0.133583 33.1949C0.534917 35.2675 4.11221 35.8692 4.61329 37.1394ZM37.1397 37.1394C37.2397 37.3736 37.2062 37.6743 37.1729 37.875C37.1058 38.2092 36.8719 38.5435 36.2034 38.5435C35.5682 38.5435 35.2007 38.176 35.2007 37.6408V36.6716H32.5261V37.4404C32.5261 39.6466 34.2644 40.3153 36.1366 40.3153C37.9417 40.3153 39.4126 39.7136 39.6465 38.0421C39.7804 37.1729 39.6801 36.638 39.6465 36.4041C39.2455 34.3315 35.4678 33.6963 35.2007 32.5599C35.1671 32.3593 35.1671 32.1586 35.2007 32.0247C35.2675 31.6905 35.5014 31.3562 36.1031 31.3562C36.6712 31.3562 37.0393 31.7237 37.0393 32.2589V32.8606H39.5127V32.1586C39.5127 29.9857 37.574 29.6514 36.1702 29.6514C34.3983 29.6514 32.9607 30.2196 32.6935 31.8576C32.6264 32.2922 32.6264 32.6935 32.7267 33.1949C33.1281 35.2675 36.638 35.8356 37.1397 37.1394ZM45.5636 38.4767C46.2656 38.4767 46.466 38.0086 46.5328 37.7411C46.5663 37.6411 46.5663 37.4736 46.5663 37.3736V29.9857H49.1068V37.1729C49.1068 37.3736 49.1068 37.7411 49.0735 37.8414C48.9064 39.7136 47.4355 40.3153 45.5968 40.3153C43.7585 40.3153 42.2876 39.7136 42.1202 37.8414C42.1202 37.7411 42.0869 37.3736 42.0869 37.1729V29.9857H44.6273V37.3736C44.6273 37.5072 44.6273 37.6408 44.6609 37.7411C44.6609 38.0086 44.8615 38.4767 45.5636 38.4767ZM66.423 38.3763C67.1586 38.3763 67.3925 37.9082 67.4593 37.6408C67.4928 37.5407 67.4928 37.3733 67.4928 37.2733V35.8356H66.4565V34.3648H70V37.0393C70 37.2397 70 37.3733 69.9665 37.7078C69.7993 39.5462 68.2281 40.1815 66.4565 40.1815C64.6847 40.1815 63.1138 39.5462 62.9466 37.7078C62.9131 37.3733 62.9131 37.2397 62.9131 37.0391V32.8274C62.9131 32.66 62.9466 32.3257 62.9466 32.1586C63.1805 30.2864 64.685 29.6847 66.4565 29.6847C68.2281 29.6847 69.7661 30.2864 69.9665 32.1586C70 32.4593 70 32.8271 70 32.8271V33.1613H67.4928V32.5932C67.4928 32.5932 67.4928 32.359 67.4593 32.2254C67.426 31.9915 67.2254 31.4901 66.4565 31.4901C65.7213 31.4901 65.5203 31.9579 65.4538 32.2254C65.4202 32.359 65.4202 32.5264 65.4202 32.6935V37.2733C65.4202 37.4068 65.4202 37.5404 65.4538 37.6408C65.4538 37.9082 65.7213 38.3763 66.423 38.3763Z" fill="#F5F5F5"/>
</g>
<defs>
<clipPath id="clip0_65_18">
<rect width="70" height="70" fill="white"/>
</clipPath>
</defs>
</svg>
