<svg width="70" height="70" viewBox="0 0 70 70" fill="none" xmlns="http://www.w3.org/2000/svg">
<path d="M26.5931 32.1226H29.3201L26.6468 40.4968H23.2327L21.6115 34.6026L19.9045 40.4968H16.5333L13.86 32.1226H16.587L18.2404 38.0167L19.8937 32.1226H23.3078L24.9612 38.0167C24.972 38.0275 26.5931 32.1226 26.5931 32.1226ZM14.472 22.5137C14.5578 22.213 14.8263 21.7943 14.9443 21.4615C15.0302 21.1824 14.998 20.9891 14.8907 20.9354C14.9766 20.0229 14.3431 19.1747 13.4305 18.9815C12.4428 18.7882 11.4444 19.4216 11.2511 20.4094C11.0578 21.3971 11.6913 22.3634 12.679 22.5888C12.8186 22.621 12.9582 22.621 13.0977 22.621C13.1514 22.6532 13.2373 22.6747 13.2588 22.7284C13.3447 22.8143 13.3983 23.1149 13.3124 23.2545C13.2588 23.394 12.8723 23.802 12.4321 24.2744C11.9919 24.7468 11.8523 24.8005 11.4658 25.2407C11.2726 25.4661 11.2189 25.7345 11.2189 25.7345C11.2189 25.7345 10.8646 25.9278 10.6177 26.2821C10.3707 26.6149 10.0379 27.302 10.0379 27.302C10.0379 27.302 9.75877 27.463 9.59772 27.5811C9.45815 27.7207 9.35079 27.8066 9.12533 28.075C9.12533 27.8281 9.21122 27.7207 9.37226 27.6026C9.47963 27.5167 9.6514 27.1088 9.67288 26.6149C9.89834 26.5075 10.0594 26.2606 10.0594 25.9815C10.0594 25.595 9.72656 25.2621 9.34005 25.2621C9.17901 25.2621 9.03944 25.3158 8.92134 25.4017C8.6422 25.2621 8.28791 25.2084 7.8692 25.2943C7.72963 25.3265 7.59005 25.3802 7.56858 25.4876C7.48269 25.5198 7.34312 25.5735 7.18208 25.8204C6.98883 26.0996 7.07472 26.2928 7.04251 26.368C7.0103 26.4538 6.70969 26.6149 6.84926 27.2483C6.90294 27.4953 6.88147 27.6885 6.90294 27.7744C6.93515 27.8818 6.95662 27.9354 7.06398 27.9676C7.11766 27.9999 7.20355 28.0213 7.25723 28.0535C7.36459 28.0857 7.3968 28.1072 7.41828 28.2146V28.4078C7.41828 28.44 7.38607 28.4937 7.36459 28.4937L6.67748 28.5259C6.25877 28.4937 6.04404 28.6333 6.04404 28.6333C6.04404 28.6333 5.62533 28.6655 5.35693 28.8265C5.07779 28.9876 4.72349 29.4278 4.6376 29.8143C4.58392 29.9753 4.55171 30.0934 4.47656 30.233C4.42288 30.3189 4.17594 30.4799 3.98269 30.6732C3.87533 30.2545 3.70355 29.7606 3.70355 29.4063V29.3204C3.70355 29.213 3.70355 29.0949 3.75723 28.9876C3.86459 28.8265 3.95048 28.6333 3.91828 28.4078C3.91828 28.2683 3.95048 28.1072 3.97196 27.9676C4.00417 27.8603 3.97196 27.7744 4.02564 27.6885C4.05785 27.6348 4.11153 27.5489 4.11153 27.463C4.11153 27.463 4.00417 27.463 3.91828 27.4953C3.77871 27.5489 3.75723 27.7207 3.69282 27.8281C3.66061 27.914 3.66061 28.0213 3.60693 28.0535C3.55325 28.0857 3.46736 28.0857 3.41368 28.0213C3.35999 27.9354 3.32779 27.8818 3.2741 27.7959C3.22042 27.71 3.08085 27.1946 2.94128 26.8833C2.8876 26.8296 2.85539 26.7437 2.78024 26.7223C2.72656 26.69 2.64067 26.7545 2.67288 26.8081C2.72656 26.9692 2.81245 27.141 2.83392 27.302C2.78024 27.1946 2.69435 27.0765 2.64067 27.0014C2.58699 26.9477 2.53331 26.8618 2.44742 26.8403C2.39374 26.8081 2.34006 26.8403 2.30785 26.894C2.27564 26.9262 2.34006 26.9799 2.34006 27.0014C2.44742 27.141 2.56551 27.302 2.6192 27.4953C2.56551 27.4416 2.51183 27.3879 2.42595 27.3557C2.39374 27.3557 2.34006 27.3557 2.31858 27.3879C2.31858 27.4201 2.31858 27.4738 2.35079 27.4953L2.59772 27.8281C2.6514 27.914 2.70509 28.0213 2.75877 28.1072C2.75877 28.0535 2.67288 28.0535 2.67288 28.1394C2.72656 28.2468 2.86613 28.3327 2.89834 28.4723C3.0057 28.7514 2.98423 29.052 2.95202 29.3848C2.91981 29.7176 2.98423 30.6839 2.89834 31.0919C2.75877 31.7575 2.79098 32.0045 2.95202 32.7453C3.03791 33.1854 3.47809 33.1854 3.81091 32.9707C4.35846 32.6164 4.93822 31.7897 5.07779 31.618C5.18515 31.4784 5.27104 31.2637 5.35693 31.2851C5.55018 31.5106 5.68975 32.4124 5.51797 33.2176C5.48576 33.3787 5.41061 33.69 5.41061 33.7652C5.44282 33.8511 5.51797 33.9048 5.51797 33.9262C5.48576 34.5275 5.07779 34.6456 4.93821 35.279C4.79864 35.9124 4.85233 36.3526 4.97042 36.9861C5.07779 37.6195 5.38913 38.2529 5.63607 38.7253C5.883 39.1977 5.93668 39.5198 5.93668 39.5198L6.16214 39.552C6.16214 39.552 6.49496 40.9048 7.18208 41.9462C9.18975 44.9738 9.90907 46.3265 10.0486 46.6272C10.1882 46.9063 9.99496 46.9063 9.99496 47.0459C9.99496 47.1854 10.1023 47.325 10.4351 47.5397C10.7894 47.7652 11.0686 48.5275 11.2082 48.9462C11.3477 49.3649 11.6269 50.1594 12.2281 50.0735C12.8293 49.9876 12.8293 49.1931 12.722 48.6992C12.5824 48.2054 12.0885 47.9584 12.0026 47.6256C11.9167 47.325 11.5839 46.7989 11.5624 46.1655C11.5624 46.0796 11.5624 46.0045 11.5947 45.8649C11.6269 45.5106 11.8201 45.0382 11.8201 44.7591C11.7879 44.4799 11.0793 43.9861 10.9075 43.6854C10.7465 43.3848 10.6284 42.7514 10.5747 42.7192C10.4888 42.687 10.4137 42.687 10.4137 42.687C10.4137 42.687 10.3063 40.5934 10.0272 39.7345C9.80171 39.1011 9.25417 38.5535 9.25417 38.5535C9.25417 38.5535 9.5011 38.0811 9.83392 36.868C10.2204 35.4078 9.64067 34.7207 9.47963 33.894C9.34006 33.2284 9.51183 32.2407 9.91981 31.2744C10.0809 30.8879 10.3922 29.9216 10.4137 29.4278C10.4137 29.2023 10.5532 29.0413 10.768 28.7407C10.9934 28.44 11.1867 28.1072 11.2618 27.8281C11.3477 27.5489 11.5624 27.2805 11.8953 26.8081C12.0563 26.5612 12.1422 26.3357 12.1422 26.3357C12.1422 26.3357 12.7434 25.7345 13.1944 25.1226C13.7204 24.4354 13.7956 24.0167 13.8278 23.8772C13.86 23.7376 14.0747 23.5765 14.1821 23.3296C14.3002 23.2008 14.3861 22.8143 14.472 22.5137ZM53.9919 38.1885C53.9919 39.8419 52.6177 40.5075 50.5241 40.5075H43.1591V32.1333H49.8048C52.0916 32.1333 53.3585 32.7345 53.3585 34.3342C53.3585 35.3005 52.8109 35.848 52.1453 36.0949C52.1131 36.0949 52.0916 36.1272 52.0916 36.1486C52.0916 36.1701 52.1238 36.2023 52.1453 36.2023C53.1867 36.3419 53.9919 37.0075 53.9919 38.1885ZM45.6391 35.44H49.8048C50.5241 35.44 50.7925 35.2146 50.7925 34.8925C50.7925 34.4738 50.4919 34.2913 49.8048 34.2913H45.6391V35.44ZM51.4259 37.7483C51.4259 37.4155 51.179 37.2008 50.5134 37.2008H45.6391V38.3603H50.5134C51.2112 38.3818 51.4259 38.1348 51.4259 37.7483ZM66.7465 40.5075H63.7726L62.8063 38.6931H58.1253L57.1913 40.5075H54.2388L58.7588 32.1333H62.1514L66.7465 40.5075ZM61.7649 36.6747L60.4443 34.1624L59.1453 36.6747H61.7649ZM38.5855 37.802L33.8401 32.1548H30.3078V40.529H32.7879V34.8496L37.5011 40.4968H41.0333V32.1226H38.521V37.802H38.5855Z" fill="#FA4D00"/>
</svg>
