<svg width="70" height="70" viewBox="0 0 70 70" fill="none" xmlns="http://www.w3.org/2000/svg">
<path d="M7.60009 27.3997C3.40463 27.3997 0 30.8043 0 34.9998C0 39.1953 3.40485 42.6002 7.60009 42.6002C11.7958 42.6002 15.2002 39.1953 15.2002 34.9998C15.2002 30.8043 11.7958 27.3997 7.60009 27.3997Z" fill="url(#paint0_radial_65_22)"/>
<path opacity="0.66" d="M7.62582 27.8916C3.60911 27.8916 0.349457 31.151 0.349457 35.1682C0.349457 39.1849 3.60911 42.4468 7.62582 42.4468C11.6428 42.4468 14.9047 39.1851 14.9047 35.1682C14.9047 31.151 11.6428 27.8916 7.62582 27.8916ZM7.62812 28.0607C7.6704 28.0607 7.71406 28.074 7.74805 28.0984C7.78573 28.125 7.81307 28.1625 7.82823 28.205V28.2073L7.83031 28.2096L8.07296 29.09C11.2285 29.3191 13.7215 31.9542 13.7215 35.1682C13.7215 36.1166 13.5039 37.0159 13.1167 37.8169L13.7414 38.4462L13.7437 38.4485L13.746 38.4505C13.7771 38.4866 13.7934 38.5284 13.7971 38.5709C13.801 38.6137 13.7929 38.6587 13.7702 38.6973C13.7483 38.7356 13.7149 38.766 13.6746 38.7841C13.6335 38.803 13.5887 38.8075 13.5455 38.7995H13.539L12.6806 38.5751C11.5844 40.1968 9.72817 41.2638 7.62584 41.2638C5.52374 41.2638 3.66887 40.1968 2.57336 38.5751L1.71749 38.8021H1.7106C1.66258 38.8108 1.61869 38.8012 1.5817 38.7842C1.54157 38.7659 1.50815 38.7355 1.48611 38.6974C1.46521 38.661 1.4551 38.6158 1.45947 38.5733C1.46361 38.5306 1.47946 38.4892 1.51069 38.4529L1.51276 38.4506L1.51506 38.4485L2.13773 37.8192C1.74989 37.0174 1.533 36.1178 1.533 35.1682C1.533 31.9534 4.02615 29.3171 7.18355 29.0901L7.42181 28.2119L7.42388 28.2073V28.205C7.43889 28.162 7.46692 28.1248 7.50407 28.0984C7.54241 28.0713 7.58562 28.0607 7.62812 28.0607ZM7.62812 28.1494C7.60239 28.1494 7.57574 28.1568 7.55459 28.1719C7.53306 28.1874 7.51686 28.2091 7.50819 28.2342L6.97882 30.1911C6.96525 30.2292 6.95949 30.2752 6.97192 30.3135C6.98455 30.3517 7.00775 30.382 7.04108 30.4047C7.13597 30.4702 7.17182 30.5938 7.21663 30.7138C7.2612 30.8337 7.26855 30.9369 7.23661 31.0609C7.20445 31.1848 7.13346 31.2976 7.03627 31.381C6.86168 31.5306 6.70494 31.7112 6.6073 31.9235C6.50965 32.136 6.4761 32.3632 6.4761 32.593V33.1575L3.74078 31.5788L3.43818 32.099L6.4761 33.8514V34.4874L5.92904 34.8033L2.89133 33.0486L2.58874 33.5736L5.32406 35.1526L4.83466 35.4352C4.63569 35.5496 4.45809 35.6935 4.32323 35.8842C4.18813 36.0751 4.10725 36.3012 4.0652 36.5268C4.04153 36.6527 3.9811 36.7708 3.88942 36.8604C3.7982 36.95 3.70423 36.9925 3.57787 37.0136C3.45198 37.0346 3.32881 37.0697 3.2245 37.0205C3.18844 37.0035 3.14846 36.9985 3.10917 37.007C3.06988 37.015 3.03081 37.0366 3.0044 37.0669L1.57917 38.5103C1.56216 38.5296 1.55025 38.5558 1.54791 38.5815C1.54539 38.6073 1.55069 38.6302 1.56353 38.6528C1.5764 38.675 1.59547 38.6952 1.61915 38.7061C1.64276 38.7167 1.66906 38.7198 1.6945 38.715L3.65598 38.1946C3.69551 38.1877 3.73594 38.1689 3.7626 38.139C3.78948 38.1092 3.80624 38.0724 3.80947 38.0324C3.81865 37.9171 3.90805 37.8265 3.9896 37.7278C4.07139 37.6294 4.15779 37.5706 4.28093 37.5364C4.40432 37.5021 4.53597 37.5097 4.65705 37.5522C4.87371 37.6285 5.10922 37.6717 5.34175 37.6501C5.57473 37.6285 5.78794 37.5446 5.98668 37.4297L6.47608 37.1469V40.3052H7.07895V36.8004L7.62808 36.4824L8.17537 36.7981V40.3052H8.77988V37.1469L9.26927 37.4298C9.46825 37.5444 9.68147 37.6285 9.91421 37.6501C10.1472 37.6715 10.3825 37.6258 10.5991 37.5495C10.72 37.5072 10.854 37.5021 10.9771 37.5362C11.1002 37.5706 11.1825 37.6294 11.2638 37.7273C11.3452 37.8261 11.4371 37.9148 11.446 38.0297C11.4495 38.0697 11.466 38.1064 11.4929 38.1365C11.5198 38.1666 11.5579 38.1915 11.5974 38.1988L13.561 38.7128C13.5865 38.7176 13.6129 38.7146 13.6366 38.7041C13.6603 38.6933 13.6791 38.6751 13.692 38.6528C13.7047 38.6305 13.7102 38.6048 13.7076 38.5793C13.7051 38.5536 13.6954 38.5276 13.6784 38.5078L12.2484 37.0693C12.2224 37.0389 12.1852 37.0132 12.1461 37.0049C12.1066 36.9967 12.0666 37.0008 12.0305 37.0183C11.926 37.0677 11.8033 37.0348 11.6772 37.0137C11.5508 36.9925 11.4568 36.948 11.3656 36.8583C11.2742 36.7683 11.2135 36.6502 11.1899 36.5247C11.1478 36.2982 11.0695 36.0725 10.9344 35.8818C10.799 35.6907 10.6175 35.5496 10.4183 35.4352L9.93146 35.1526L12.6668 33.5736L12.3644 33.0511L9.32671 34.8056L8.7794 34.4899V33.8539L11.8173 32.1013L11.5148 31.5788L8.77946 33.1578V32.593C8.77946 32.363 8.74385 32.136 8.64644 31.9235C8.54856 31.7112 8.39141 31.5306 8.217 31.381C8.11982 31.2976 8.04906 31.1848 8.01687 31.0609C7.98493 30.9371 7.99436 30.8337 8.03893 30.7138C8.08396 30.5941 8.11497 30.47 8.21033 30.4048C8.24319 30.3818 8.26916 30.3517 8.28132 30.3135C8.29396 30.2754 8.29487 30.2292 8.28132 30.1911L7.74323 28.2342C7.73471 28.2096 7.71982 28.1869 7.69888 28.1719C7.67843 28.1568 7.65408 28.1494 7.62812 28.1494ZM7.62812 31.9322C7.7715 31.9322 7.91349 31.991 8.01505 32.0926C8.11683 32.1941 8.17541 32.3361 8.17541 32.4795V33.507L7.62812 33.8227L7.07899 33.5047V32.4795C7.07899 32.3361 7.13757 32.1943 7.23891 32.0926C7.34045 31.9908 7.48452 31.9322 7.62812 31.9322ZM7.63042 34.5187L8.17541 34.8346V35.4703L7.63042 35.7863L7.07899 35.468V34.8364L7.63042 34.5187ZM5.92925 35.5018L6.47631 35.8175V36.4535L5.58919 36.9649C5.46489 37.0366 5.31211 37.0555 5.1731 37.0185C5.03432 36.981 4.91163 36.8868 4.83972 36.7628C4.76803 36.6387 4.7492 36.4857 4.78642 36.3469C4.82364 36.2076 4.91555 36.087 5.04008 36.0155L5.92925 35.5018ZM9.32928 35.5018L10.2166 36.0133C10.3407 36.0849 10.4349 36.2056 10.4723 36.3446C10.5098 36.4834 10.4886 36.6382 10.4167 36.7625C10.3451 36.8864 10.2217 36.9787 10.0831 37.016C9.94434 37.0527 9.79384 37.0339 9.66954 36.9626L8.77989 36.4489V35.817L9.32928 35.5018Z" fill="black"/>
<path d="M7.59939 27.7228C3.58245 27.7228 0.323029 30.982 0.323029 34.9991C0.323029 39.0163 3.58245 42.278 7.59939 42.278C11.6166 42.278 14.8778 39.0163 14.8778 34.9991C14.8778 30.982 11.6164 27.7228 7.59939 27.7228ZM7.60146 27.8917C7.64351 27.8917 7.68738 27.905 7.7214 27.9296C7.75849 27.956 7.78643 27.9934 7.80135 28.0364V28.0385L7.80365 28.041L8.04606 28.9214C11.2016 29.1503 13.6948 31.7857 13.6948 34.9991C13.6948 35.9476 13.4772 36.8464 13.09 37.6478L13.715 38.2774L13.717 38.2794L13.7193 38.2817C13.7501 38.3178 13.7664 38.3594 13.7704 38.4016C13.7747 38.4446 13.7662 38.4897 13.7439 38.5282C13.722 38.5665 13.6885 38.5968 13.6484 38.6151C13.6081 38.6337 13.563 38.6392 13.5195 38.6307H13.5126L12.6542 38.406C11.5582 40.0276 9.70173 41.0947 7.59964 41.0947C5.49708 41.0947 3.64242 40.0276 2.54668 38.406L1.69082 38.633H1.68392C1.63591 38.6417 1.59202 38.6321 1.55502 38.6151C1.51413 38.5962 1.48102 38.5659 1.45945 38.5282C1.43853 38.4924 1.42842 38.4469 1.43302 38.4042C1.43669 38.3617 1.45301 38.3201 1.48404 38.2838L1.48634 38.2817L1.48863 38.2794L2.1113 37.6501C1.72323 36.8485 1.50634 35.9487 1.50634 34.9991C1.50634 31.7841 3.99995 29.148 7.15736 28.9214L7.39518 28.0428L7.39725 28.0382V28.0362C7.41241 27.9932 7.43975 27.956 7.4772 27.9293C7.51552 27.902 7.55919 27.8917 7.60146 27.8917ZM7.60146 27.9806C7.57549 27.9806 7.54908 27.9879 7.52793 28.0029C7.50639 28.0183 7.49017 28.0401 7.48153 28.0651L6.95216 30.022C6.93882 30.0601 6.93308 30.1043 6.94549 30.1424C6.95813 30.1805 6.98155 30.2129 7.0144 30.2354C7.10952 30.3011 7.14515 30.4245 7.19018 30.5447C7.23498 30.6644 7.24211 30.7678 7.21017 30.8916C7.17847 31.0157 7.10494 31.1285 7.00775 31.2117C6.83337 31.3613 6.67849 31.5421 6.58085 31.7542C6.48298 31.9667 6.44988 32.194 6.44988 32.4239V32.9887L3.71432 31.4098L3.41194 31.9299L6.44986 33.6823V34.3181L5.90257 34.634L2.86462 32.8793L2.56201 33.4018L5.29735 34.983L4.80818 35.2657C4.6092 35.3803 4.42954 35.5239 4.29442 35.7146C4.15908 35.9053 4.08074 36.1314 4.03871 36.3575C4.01504 36.483 3.95439 36.601 3.86294 36.6911C3.77149 36.7805 3.67799 36.823 3.55162 36.8442C3.42547 36.8653 3.3021 36.9005 3.19802 36.8509C3.16197 36.8336 3.12119 36.829 3.08221 36.8378C3.04291 36.8456 3.00385 36.8667 2.97767 36.8975L1.55016 38.3407C1.53313 38.3604 1.5235 38.3864 1.52097 38.4121C1.51822 38.4376 1.52373 38.4608 1.53636 38.4834C1.54935 38.5057 1.56872 38.5236 1.59198 38.5348C1.61563 38.5454 1.64229 38.55 1.66779 38.5456L3.62904 38.0252C3.66856 38.0178 3.709 37.9997 3.73588 37.9696C3.76231 37.9395 3.7793 37.9029 3.78276 37.863C3.79173 37.7476 3.88108 37.6569 3.96265 37.5583C4.04422 37.4593 4.13062 37.4012 4.25399 37.3671C4.37738 37.3327 4.50903 37.3405 4.62965 37.3828C4.84654 37.4588 5.08182 37.5022 5.31481 37.4802C5.54732 37.4588 5.76079 37.3754 5.95953 37.2605L6.44893 36.9776V40.1355H7.05159V36.6309L7.60095 36.3129L8.14801 36.6286V40.1355H8.75297V36.9776L9.23984 37.2605C9.43904 37.3749 9.65411 37.4588 9.88685 37.4802C10.1198 37.5022 10.3551 37.4565 10.572 37.3802C10.6926 37.3379 10.8266 37.3303 10.95 37.3648C11.0729 37.3992 11.1554 37.4592 11.2369 37.5582C11.3181 37.6568 11.41 37.7457 11.4189 37.8606C11.4224 37.9006 11.4389 37.9374 11.4658 37.9675C11.4925 37.9976 11.5311 38.0219 11.5703 38.0297L13.5339 38.5437C13.5594 38.5483 13.5863 38.5456 13.6097 38.535C13.6331 38.5239 13.6525 38.5058 13.6653 38.4833C13.6779 38.4612 13.683 38.4359 13.6807 38.41C13.6782 38.384 13.6685 38.3583 13.6518 38.3387L12.2217 36.9C12.1958 36.8694 12.1585 36.8437 12.1195 36.8359C12.0802 36.8276 12.04 36.8315 12.0037 36.8489C11.8994 36.8986 11.7764 36.8657 11.6503 36.8446C11.5239 36.823 11.4304 36.7784 11.339 36.6888C11.2476 36.5992 11.1871 36.4811 11.1632 36.3556C11.1209 36.1291 11.0426 35.9031 10.9075 35.7128C10.7724 35.5216 10.5907 35.3806 10.3917 35.2657L9.90252 34.9831L12.6399 33.4021L12.3373 32.8816L9.29962 34.6363L8.75233 34.3204V33.6844L11.7902 31.9323L11.4879 31.4096L8.75255 32.9885V32.4235C8.75255 32.1938 8.71717 31.9665 8.61928 31.754C8.52141 31.5417 8.36447 31.3611 8.19008 31.2115C8.09267 31.1281 8.02189 31.0156 7.98997 30.8915C7.95803 30.7674 7.96722 30.6645 8.01203 30.5445C8.05683 30.4246 8.08831 30.3007 8.18343 30.2353C8.21651 30.2125 8.24201 30.1801 8.25466 30.142C8.2673 30.1041 8.268 30.0597 8.25466 30.0221L7.71657 28.0649C7.70785 28.0406 7.69084 28.0176 7.66992 28.0024C7.65006 27.988 7.62604 27.9803 7.60146 27.9806ZM7.60146 31.7634C7.74507 31.7634 7.88659 31.822 7.98839 31.9235C8.09016 32.0253 8.14853 32.1671 8.14853 32.3107V33.338L7.60146 33.6539L7.0521 33.3356V32.3104C7.0521 32.1668 7.11068 32.0253 7.21224 31.9235C7.31402 31.8217 7.45786 31.7634 7.60146 31.7634ZM7.60146 34.3498L8.14853 34.6655V35.3017L7.60376 35.6172L7.05235 35.2994V34.6678L7.60146 34.3498ZM5.90031 35.3307L6.44944 35.6489V36.2847L5.5621 36.7963C5.4378 36.868 5.28522 36.8864 5.14622 36.8497C5.00721 36.8124 4.88429 36.7182 4.8126 36.5939C4.74069 36.4699 4.72186 36.3166 4.75908 36.1783C4.7963 36.0391 4.88821 35.9164 5.01274 35.8447L5.90031 35.3307ZM9.30057 35.3307L10.19 35.8447C10.3145 35.9163 10.4085 36.0367 10.4457 36.1758C10.4832 36.3148 10.4597 36.4696 10.3878 36.5937C10.3161 36.7178 10.1953 36.8101 10.0563 36.8474C9.9177 36.8842 9.76492 36.8653 9.64062 36.7936L8.75305 36.2822V35.6462L9.30057 35.3307Z" fill="url(#paint1_radial_65_22)"/>
<path d="M16.4561 28.6143L19.2592 37.1737V41.3544H22.0248V37.1737L24.6698 28.6143H22.1698L20.5991 34.1764L19.0735 28.6143H16.4561ZM33.7199 28.6143V41.3545H36.0203V33.0922L37.3387 41.3545H39.0757L40.3914 33.0922V41.3545H42.735V28.6144H39.2223L38.2203 34.6748L37.2549 28.6144L33.7199 28.6143ZM53.4056 28.6143V41.3545H55.9697V35.9849H58.1539V41.3545H60.6569V28.6144H58.1539V33.6827H55.9697V28.6143H53.4056ZM64.2998 28.6118L62.0842 41.354H64.5849L65.078 38.2414H66.9942L67.4772 41.354H69.9995L67.7832 28.6118H64.2998ZM66.057 31.4062L66.7089 36.0159H65.3776L66.057 31.4062ZM46.3417 28.6118L44.1262 41.354H46.6269L47.12 38.2414H49.0364L49.5191 41.354H52.0417L49.8254 28.6118H46.3417ZM48.099 31.4062L48.7511 36.0159H47.4196L48.099 31.4062ZM26.6665 28.6118L24.4506 41.354H26.9514L27.4442 38.2414H29.3607L29.8434 41.354H32.366L30.1499 28.6118H26.6665ZM28.4235 31.4062L29.0758 36.0159H27.7441L28.4235 31.4062Z" fill="#F5F5F5"/>
<defs>
<radialGradient id="paint0_radial_65_22" cx="0" cy="0" r="1" gradientUnits="userSpaceOnUse" gradientTransform="translate(4.92294 31.4178) scale(10.2415)">
<stop stop-color="#FD9196"/>
<stop offset="1" stop-color="#F30713"/>
</radialGradient>
<radialGradient id="paint1_radial_65_22" cx="0" cy="0" r="1" gradientUnits="userSpaceOnUse" gradientTransform="translate(-217.671 33.856) rotate(-45) scale(17.8497 16.1769)">
<stop offset="0.048" stop-color="#E4EBEE"/>
<stop offset="0.272" stop-color="#F5F8F9"/>
<stop offset="0.467" stop-color="white"/>
<stop offset="0.752" stop-color="#BFC1C3"/>
<stop offset="0.867" stop-color="#DCE0E6"/>
<stop offset="0.905" stop-color="#E2E6ED"/>
<stop offset="1" stop-color="#BCBEC0"/>
</radialGradient>
</defs>
</svg>
