<svg width="108" height="24" viewBox="0 0 108 24" fill="none" xmlns="http://www.w3.org/2000/svg">
<path d="M104.783 0H3.21667C2.36091 0.00326973 1.5415 0.335903 0.938377 0.924837C0.335257 1.51377 -0.00224444 2.31085 1.12344e-05 3.141V13.9019C-0.000412365 14.836 0.379327 15.7326 1.05667 16.3966L8.83097 24V20.1674H104.783C105.207 20.1658 105.627 20.0832 106.018 19.9242C106.409 19.7653 106.764 19.5332 107.063 19.2411C107.362 18.9491 107.598 18.6028 107.759 18.2221C107.92 17.8414 108.002 17.4337 108 17.0223V3.141C108.002 2.31085 107.665 1.51377 107.062 0.924837C106.459 0.335903 105.639 0.00326973 104.783 0ZM105.208 17.6027H8.83522V20.1674L2.77957 14.2477V2.56055H105.22V17.5986L105.208 17.6027Z" fill="#E60000"/>
</svg>
