<svg width="68" height="46" viewBox="0 0 68 46" fill="none" xmlns="http://www.w3.org/2000/svg">
<path d="M66.2837 16.2461L59.6552 3.55221C59.2598 2.80332 58.5878 2.23834 57.7821 1.9776C56.9764 1.71686 56.1007 1.78097 55.3416 2.15626L48.8392 5.40734H43.9359L34.8301 1.28725C34.1267 0.969475 33.3329 0.913329 32.5917 1.12893L19.0673 5.07173L12.6583 1.86738C11.8991 1.49222 11.0236 1.42818 10.2179 1.68888C9.41225 1.94958 8.74017 2.51443 8.34473 3.2632L1.71621 15.9574C1.51744 16.3381 1.3965 16.7546 1.36043 17.1826C1.32436 17.6106 1.37388 18.0415 1.50612 18.4501C1.63836 18.8588 1.85065 19.237 2.13062 19.5627C2.41059 19.8884 2.75263 20.1551 3.13677 20.3472L9.70251 23.6301L24.35 35.0837C24.7065 35.3634 25.1181 35.5645 25.5579 35.6738L41.1791 39.5791C41.4332 39.6425 41.6942 39.6745 41.9561 39.6744C42.8159 39.6747 43.6408 39.3346 44.2505 38.7284L54.1684 28.8104C54.1884 28.7905 54.2074 28.7698 54.2258 28.7485L58.3965 23.8694L64.8631 20.6361C65.2472 20.444 65.5893 20.1773 65.8693 19.8516C66.1492 19.5258 66.3615 19.1476 66.4938 18.739C66.626 18.3303 66.6755 17.8994 66.6395 17.4714C66.6034 17.0434 66.4825 16.6269 66.2837 16.2461ZM53.2343 26.5899L42.1809 18.5511C41.9944 18.4155 41.7694 18.3432 41.5388 18.3449C41.3083 18.3466 41.0843 18.4221 40.8999 18.5604L37.4499 21.1479C36.1411 22.1217 34.5532 22.6477 32.9218 22.6477C31.2905 22.6477 29.7026 22.1217 28.3938 21.1479L26.9327 20.0522C26.8091 19.9595 26.7069 19.8414 26.633 19.7058C26.559 19.5702 26.5151 19.4203 26.5041 19.2662C26.4932 19.1121 26.5155 18.9575 26.5695 18.8128C26.6234 18.6681 26.7079 18.5367 26.8171 18.4275L37.3651 7.87945C37.5678 7.67796 37.8416 7.56447 38.1274 7.56359H43.7L43.7025 7.56386L43.7062 7.56359H48.4404L56.4258 22.8562L53.2343 26.5899ZM3.55765 17.7863C3.5131 17.6502 3.49634 17.5065 3.50837 17.3637C3.52039 17.221 3.56096 17.0821 3.62767 16.9553L10.2562 4.26118C10.3483 4.08648 10.4864 3.94029 10.6556 3.83844C10.8248 3.73658 11.0186 3.68294 11.2161 3.6833C11.382 3.68315 11.5456 3.72173 11.6939 3.79597L17.4427 6.67027L9.81583 21.276L4.10119 18.4187C3.97287 18.355 3.85864 18.2663 3.76527 18.1576C3.6719 18.049 3.6013 17.9227 3.55765 17.7863ZM42.726 37.2036C42.5941 37.3349 42.4305 37.43 42.2511 37.4797C42.0717 37.5294 41.8825 37.5319 41.7019 37.4871L26.0806 33.5818C25.9341 33.5454 25.7969 33.4784 25.6782 33.3852L11.6523 22.4177L19.6213 7.15624L33.195 3.19912C33.4421 3.12706 33.7068 3.14573 33.9412 3.25176L38.705 5.40735H38.1274C37.7025 5.40619 37.2816 5.48932 36.8891 5.65193C36.4966 5.81453 36.1402 6.05339 35.8406 6.35466L25.2926 16.9027C24.9648 17.2303 24.7114 17.6246 24.5493 18.0587C24.3872 18.4928 24.3203 18.9567 24.3531 19.419C24.386 19.8812 24.5177 20.331 24.7395 20.7379C24.9613 21.1448 25.268 21.4992 25.6387 21.7773L27.0998 22.873C28.7827 24.125 30.8243 24.8012 32.9218 24.8012C35.0193 24.8012 37.061 24.125 38.7439 22.873L41.5566 20.7633L51.7518 28.1778L42.726 37.2036ZM64.4422 18.0752C64.3986 18.2116 64.328 18.3379 64.2346 18.4465C64.1413 18.5551 64.027 18.6439 63.8987 18.7075L58.1841 21.5649L50.5572 6.95912L56.306 4.08483C56.559 3.95965 56.8509 3.93825 57.1195 4.02518C57.3881 4.11211 57.612 4.3005 57.7437 4.55019L64.3722 17.2441C64.4389 17.3709 64.4795 17.5098 64.4915 17.6525C64.5035 17.7953 64.4868 17.939 64.4422 18.0752ZM30.7335 44.4812C30.6993 44.6186 30.6383 44.748 30.554 44.8618C30.4698 44.9757 30.3639 45.0718 30.2425 45.1447C30.121 45.2175 29.9864 45.2658 29.8463 45.2866C29.7063 45.3074 29.5634 45.3003 29.4261 45.2659L21.3025 43.2352C20.8081 43.1109 20.3499 42.8721 19.9648 42.5382L13.8864 37.2544C13.7792 37.1617 13.6913 37.0486 13.6278 36.9219C13.5643 36.7951 13.5264 36.657 13.5164 36.5156C13.5063 36.3741 13.5242 36.2321 13.5691 36.0976C13.614 35.9631 13.685 35.8388 13.7781 35.7318C13.8711 35.6248 13.9843 35.5372 14.1112 35.474C14.2382 35.4108 14.3763 35.3733 14.5178 35.3635C14.6593 35.3538 14.8013 35.3721 14.9356 35.4174C15.07 35.4626 15.1942 35.5339 15.3009 35.6272L21.3796 40.911C21.5082 41.0223 21.6611 41.1019 21.826 41.1434L29.9488 43.1738C30.2262 43.2432 30.4647 43.4199 30.6118 43.6651C30.759 43.9102 30.8027 44.2038 30.7335 44.4812Z" fill="#F5F5F5" stroke="#F5F5F5" stroke-width="1.035"/>
</svg>
