<svg width="119" height="31" viewBox="0 0 119 31" fill="none" xmlns="http://www.w3.org/2000/svg">
<path d="M8.84384 0.0724258H0V3.74746H6.86609L0 10.6136V15.8106L9.4635 6.34712V13.211H13.1385V4.36713C13.1385 1.99927 11.2117 0.0724258 8.84384 0.0724258Z" fill="white"/>
<path d="M5.92558 13.6554L3.15291 16.427H9.00809V13.6554H5.92558Z" fill="#C2F438"/>
<path d="M26.2772 19.4688V14.2718L16.8137 23.7353V16.8715H13.1386V25.7153C13.1386 28.0831 15.0655 30.01 17.4333 30.01H26.2772V26.3349H19.4111L26.2772 19.4688Z" fill="white"/>
<path d="M17.2695 13.6554V16.427H20.352L23.1247 13.6554H17.2695Z" fill="#C2F438"/>
<path d="M23.1243 13.6553L20.3516 16.4257H17.2691V13.6553H23.1243ZM24.2166 13.203H16.8157V16.878H20.5382L24.2166 13.203Z" fill="#C2F438"/>
<path d="M9.00786 13.6553V16.4257H3.15268L5.92536 13.6553H9.00786ZM9.46018 13.203H5.73764L2.05923 16.878H9.46018V13.203Z" fill="#C2F438"/>
<path d="M65.4555 7.70241V10.6334H55.0967V3.8147e-05H58.438V7.7009H65.4555V7.70241Z" fill="white"/>
<path d="M78.0937 7.70241V10.6334H67.7348V3.8147e-05H71.0762V7.7009H78.0937V7.70241Z" fill="white"/>
<path d="M42.7467 15.4047V16.4682H49.0507V19.2333H42.7467V20.2515H50.0825V23.1524H39.4039V12.519H50.0825V15.4047H42.7467Z" fill="white"/>
<path d="M60.7476 17.8198L65.2595 23.1509H60.9753L58.3626 19.9921L55.7499 23.1509H51.4507L55.9777 17.8198L51.4507 12.519H55.7499L58.3626 15.6325L60.9753 12.519H65.2595L60.7476 17.8198Z" fill="white"/>
<path d="M79.4618 12.519V23.1524H76.1205V19.2031H70.272V23.1524H66.9307V12.519H70.272V16.2404H76.1205V12.519H79.4618Z" fill="white"/>
<path d="M81.4364 12.519H84.7777V23.1524H81.4364V12.519Z" fill="white"/>
<path d="M98.3272 17.8199C98.7978 18.3509 99.0709 19.0191 99.0709 19.7643C99.0709 21.6484 97.5518 23.1509 95.6692 23.1509H86.7525V12.5175H95.6692C97.5533 12.5175 99.0709 14.0366 99.0709 15.9207C99.0709 16.6644 98.7978 17.3176 98.3272 17.8199ZM90.0184 16.5437H95.1367C95.4097 16.5437 95.6677 16.3008 95.6677 15.9976C95.6677 15.6944 95.4248 15.4515 95.1367 15.4515H90.0184V16.5452V16.5437ZM95.6692 19.6271C95.6692 19.354 95.4263 19.0342 95.0764 19.0342H90.0184V20.2184H95.0915C95.4097 20.2184 95.6692 19.9604 95.6692 19.6256V19.6271Z" fill="white"/>
<path d="M100.744 12.519H104.085V23.1524H100.744V12.519Z" fill="white"/>
<path d="M118.803 15.45H114.261V23.1509H110.92V15.45H106.363V12.519H118.803V15.45Z" fill="white"/>
<path d="M49.5982 8.94692H43.522L43.0815 10.6334H39.7101L42.5204 3.8147e-05H50.6165L53.4268 10.6334H50.0402L49.5997 8.94692H49.5982ZM48.8229 5.98574L48.0324 2.93255H45.0712L44.2808 5.98574H48.8229Z" fill="white"/>
<path d="M39.2772 29.0187H39.9469C39.9469 29.3159 40.1928 29.4592 40.4643 29.4592C40.7148 29.4592 40.9591 29.3265 40.9591 29.0987C40.9591 28.8709 40.6785 28.7955 40.3467 28.717C39.8836 28.6024 39.3209 28.4681 39.3209 27.8074C39.3209 27.2176 39.7553 26.8857 40.4342 26.8857C41.113 26.8857 41.5414 27.2628 41.5414 27.8738H40.8852C40.8852 27.6098 40.6665 27.4846 40.4191 27.4846C40.2034 27.4846 39.9861 27.5766 39.9861 27.7772C39.9861 27.993 40.2532 28.0593 40.5775 28.1363C41.0451 28.2554 41.6334 28.4002 41.6334 29.0881C41.6334 29.776 41.1054 30.0732 40.4689 30.0732C39.7644 30.0732 39.2787 29.6779 39.2787 29.0172L39.2772 29.0187Z" fill="white"/>
<path d="M42.6426 28.4789C42.6426 27.5678 43.3441 26.8769 44.2809 26.8769C45.2176 26.8769 45.9131 27.5647 45.9131 28.4789C45.9131 29.393 45.2146 30.0809 44.2809 30.0809C43.3471 30.0809 42.6426 29.39 42.6426 28.4789ZM45.2403 28.4789C45.2403 27.9222 44.8284 27.5029 44.2824 27.5029C43.7363 27.5029 43.3169 27.9253 43.3169 28.4789C43.3169 29.0325 43.7348 29.4549 44.2824 29.4549C44.83 29.4549 45.2403 29.037 45.2403 28.4789Z" fill="white"/>
<path d="M48.9361 29.3976V30.0145H47.0927V26.9432H47.7565V29.3976H48.9346H48.9361Z" fill="white"/>
<path d="M50.01 28.859V26.9432H50.6753V28.8274C50.6753 29.2105 50.9257 29.4534 51.2787 29.4534C51.6316 29.4534 51.8821 29.2105 51.8821 28.8274V26.9432H52.5473V28.859C52.5473 29.5786 52.0042 30.0824 51.2787 30.0824C50.5531 30.0824 50.01 29.5801 50.01 28.859Z" fill="white"/>
<path d="M55.9929 27.5602H55.1391V30.0145H54.4739V27.5602H53.6201V26.9432H55.9929V27.5602Z" fill="white"/>
<path d="M57.0969 26.9432H57.7606V30.0145H57.0969V26.9432Z" fill="white"/>
<path d="M58.9434 28.4789C58.9434 27.5678 59.6448 26.8769 60.5816 26.8769C61.5184 26.8769 62.2138 27.5647 62.2138 28.4789C62.2138 29.393 61.5153 30.0809 60.5816 30.0809C59.6478 30.0809 58.9434 29.39 58.9434 28.4789ZM61.5395 28.4789C61.5395 27.9222 61.1277 27.5029 60.5816 27.5029C60.0355 27.5029 59.6161 27.9253 59.6161 28.4789C59.6161 29.0325 60.034 29.4549 60.5816 29.4549C61.1292 29.4549 61.5395 29.037 61.5395 28.4789Z" fill="white"/>
<path d="M65.9911 26.9432V30.0145H65.436L64.0451 28.0957V30.0145H63.3935V26.9432H63.9938L65.3409 28.8168V26.9432H65.9926H65.9911Z" fill="white"/>
<path d="M67.1784 29.0189H67.8482C67.8482 29.3161 68.0941 29.4594 68.3656 29.4594C68.616 29.4594 68.8604 29.3267 68.8604 29.0989C68.8604 28.8711 68.5798 28.7957 68.2479 28.7172C67.7848 28.6026 67.2222 28.4683 67.2222 27.8076C67.2222 27.2178 67.6566 26.8859 68.3354 26.8859C69.0143 26.8859 69.4427 27.263 69.4427 27.874H68.7865C68.7865 27.61 68.5677 27.4848 68.3203 27.4848C68.1046 27.4848 67.8874 27.5768 67.8874 27.7774C67.8874 27.9931 68.1544 28.0595 68.4787 28.1364C68.9464 28.2556 69.5347 28.4004 69.5347 29.0883C69.5347 29.7762 69.0067 30.0734 68.3701 30.0734C67.6657 30.0734 67.1799 29.6781 67.1799 29.0174L67.1784 29.0189Z" fill="white"/>
</svg>
